<svg width="24" height="24" viewBox="0 0 24 24" xmlns="http://www.w3.org/2000/svg">
<path fill-rule="evenodd" clip-rule="evenodd" d="M14.9995 7H16.9995V12C16.9995 14.4709 17.189 15 17.9995 15C19.3038 15 19.9995 14.3832 19.9995 12C19.9995 6.71065 17.3465 4 11.9996 4C8.53557 4.00044 5.46535 6.23026 4.39334 9.52426C3.32133 12.8182 4.49111 16.428 7.29139 18.4671C10.0917 20.5062 13.8862 20.5114 16.6921 18.48L17.8649 20.1C14.3576 22.6393 9.61443 22.6328 6.11408 20.0839C2.61373 17.5349 1.15151 13.0228 2.49152 8.90532C3.83153 4.78783 7.66931 2.00054 11.9995 2C18.4609 2 21.9995 5.6156 21.9995 12C21.9995 15.5449 20.3584 17 17.9995 17C16.6556 17 15.8865 16.5667 15.4643 15.6048C14.5656 16.4688 13.3446 17 11.9995 17C9.23806 17 6.99949 14.7614 6.99949 12C6.99949 9.23858 9.23806 7 11.9995 7C13.1251 7 14.1638 7.37194 14.9995 7.99963V7ZM14.9995 12C14.9995 13.6569 13.6563 15 11.9995 15C10.3426 15 8.99949 13.6569 8.99949 12C8.99949 10.3431 10.3426 9 11.9995 9C13.6563 9 14.9995 10.3431 14.9995 12Z" />
</svg>
