<svg width="17" height="16" viewBox="0 0 17 16" xmlns="http://www.w3.org/2000/svg">
<path fill-rule="evenodd" clip-rule="evenodd" d="M6.57088 14.4008C6.5755 14.4991 6.56372 14.5949 6.54073 14.692C6.50032 14.8625 6.42229 15.043 6.31184 15.2097C5.99787 15.6837 5.46449 16 4.77779 16C3.1601 16 2.5252 15.2858 1.73025 13.4975C1.19186 12.2863 0.937875 12.0006 0.333344 12.0006L0.333344 10.4008C1.95103 10.4008 2.58593 11.115 3.38088 12.9033C3.91927 14.1145 4.17326 14.4002 4.77779 14.4002C4.77779 14.1681 4.77426 13.9625 4.76682 13.6841C4.7494 13.0316 4.7474 12.8984 4.77903 12.7239C4.79167 12.3431 4.90093 12.0729 5.12001 11.8047C3.13618 11.4161 1.79816 10.6135 1.03021 9.31177L0.742532 8.70297C0.462273 7.9782 0.333344 7.15698 0.333344 6.20855C0.333344 5.11627 0.703429 4.13963 1.39469 3.32325C1.17906 2.54725 1.20859 1.59914 1.68473 0.528404L1.84031 0.178531L2.23918 0.0637185C2.29259 0.0483466 2.35751 0.0344631 2.43378 0.0236909C3.21047 -0.0860048 4.31566 0.175718 5.7605 1.00853C6.61225 0.830854 7.50921 0.74115 8.41225 0.74115C9.21924 0.74115 10.0217 0.814359 10.7881 0.958691C12.1938 0.16654 13.2687 -0.0819091 14.0245 0.0238315C14.0998 0.0343796 14.1641 0.0479973 14.2171 0.0631108L14.6184 0.177642L14.7742 0.529649C15.1907 1.4709 15.2622 2.33835 15.1107 3.09738C15.9053 3.95542 16.3333 5.01029 16.3333 6.20855C16.3333 7.21876 16.2529 7.97837 16.0217 8.71736L15.7777 9.31996C15.1389 10.6203 13.7302 11.4319 11.5578 11.8185C11.7836 12.0998 11.8889 12.3854 11.8889 12.8005V13.6004C11.8889 13.988 11.8889 13.9999 11.8879 14.4002C11.8899 14.429 11.8926 14.4431 11.8955 14.4518C11.8948 14.4521 11.8889 16 11.8889 16C11.1317 16 10.5688 15.6677 10.2919 15.1436C10.1483 14.8718 10.1055 14.6124 10.1111 14.3889V12.8005C10.1111 12.7334 10.1085 12.7295 9.92703 12.5662C9.44187 12.1296 9.22223 11.8002 9.22223 11.2007V10.4771L10.0223 10.4048C12.4039 10.1896 13.6992 9.59444 14.1286 8.72499L14.3293 8.23127C14.489 7.71505 14.5556 7.08637 14.5556 6.20855C14.5556 5.27582 14.1937 4.50531 13.5093 3.88972L13.1332 3.55135L13.2867 3.09311C13.4231 2.68602 13.4555 2.20431 13.3112 1.65487C13.2872 1.66034 13.2623 1.6663 13.2364 1.67278C12.7605 1.79202 12.1663 2.04787 11.4502 2.47859L11.1236 2.67504L10.7423 2.58996C10.0048 2.4254 9.21232 2.34092 8.41225 2.34092C7.52255 2.34092 6.64309 2.44278 5.83064 2.64209L5.43415 2.73936L5.09496 2.53056C4.35434 2.07464 3.73908 1.8035 3.24572 1.67685C3.21049 1.6678 3.17694 1.65971 3.14505 1.6525C2.97292 2.28839 3.041 2.81083 3.21533 3.20286L3.42435 3.67291L3.04169 4.04406C2.43192 4.63548 2.11112 5.35519 2.11112 6.20855C2.11112 6.98985 2.21276 7.63724 2.39902 8.12491L2.63163 8.62038C3.21311 9.60226 4.44819 10.193 6.6503 10.4054L7.44445 10.482V11.2007C7.44445 11.8002 7.22482 12.1296 6.73966 12.5662C6.55815 12.7295 6.55557 12.7334 6.55557 12.8005L6.54024 12.9483C6.53011 12.9968 6.53011 13.1221 6.54409 13.6457C6.55052 13.8865 6.55418 14.0771 6.55524 14.2763C6.56586 14.3176 6.56747 14.3442 6.57088 14.4008Z"/>
</svg>
